<?xml version="1.0" encoding="utf-8"?>
<!-- Svg Vector Icons : http://www.onlinewebfonts.com/icon -->
<!DOCTYPE svg PUBLIC "-//W3C//DTD SVG 1.1//EN" "http://www.w3.org/Graphics/SVG/1.1/DTD/svg11.dtd">
<svg version="1.1" xmlns="http://www.w3.org/2000/svg" xmlns:xlink="http://www.w3.org/1999/xlink" x="0px" y="0px" viewBox="0 0 1000 1000" enable-background="new 0 0 1000 1000" xml:space="preserve">
<metadata> Svg Vector Icons : http://www.onlinewebfonts.com/icon </metadata>
<g><g><g id="Layer_1_66_"><g><path d="M500,990C229.8,990,10,770.2,10,500S229.8,10,500,10c270.2,0,490,219.8,490,490S770.2,990,500,990z M500,118.9c-210.1,0-381.1,171-381.1,381.1s171,381.1,381.1,381.1c210.1,0,381.1-171,381.1-381.1S710.1,118.9,500,118.9z"/></g><g><g><path d="M585.2,534.1c9.3,0,17.2,4.6,24,13.9c6.8,9.2,10.2,20.6,10.2,34c0,13.5-3.4,24.9-10.2,34.1c-6.8,9.2-14.8,13.8-24,13.8c-9.9,0-18.3-4.6-25.1-13.8c-6.8-9.2-10.2-20.6-10.2-34.1c0-13.5,3.4-24.8,10.2-34C566.9,538.7,575.4,534.1,585.2,534.1 M705.5,409.5c26.2,28.4,39.5,62.9,39.5,103.3c0,26.2-3.1,49.8-9,70.8c-6,20.9-13.7,38-22.9,51.1c-9.3,13.2-20.6,24.7-34.1,34.6c-13.6,10-26,17.2-37.3,21.8c-11.3,4.6-24.3,8.2-39,10.7c-14.5,2.6-25.4,3.9-33,4.3c-7.4,0.3-15.4,0.5-24,0.5c-1.9,0-8.4,0.2-19.2,0.5c-10.5,0.4-19.5,0.6-26.6,0.6s-16.1-0.2-26.6-0.6c-10.7-0.3-17.2-0.5-19.2-0.5c-8.6,0-16.7-0.1-24-0.5c-7.6-0.4-18.6-1.7-33-4.3c-14.8-2.5-27.7-6-39-10.7c-11.3-4.6-23.7-11.8-37.2-21.8c-13.6-9.9-24.9-21.5-34.2-34.6c-9.1-13.1-16.8-30.2-22.9-51.1c-5.9-21-9-44.6-9-70.8c0-40.5,13.2-74.9,39.5-103.3c-2.9-1.4-3-15.6-0.4-42.6c2.3-27,8.1-51.9,17.4-74.6c32.8,3.5,73.1,22,121.4,55.4c16.3-4.2,38.7-6.4,67.1-6.4c29.9,0,52.2,2.2,67.2,6.4c22-14.9,43.1-27,63.2-36.3c20.4-9.1,35.1-14.5,44.3-16l13.8-3.2c9.4,22.7,15.1,47.6,17.4,74.6C708.6,393.9,708.4,408,705.5,409.5 M501.1,683.2c59,0,103.4-7,133.6-21.2c30.1-14.2,45.4-43.3,45.4-87.4c0-25.5-9.6-46.9-28.8-63.9c-9.9-9.3-21.5-14.9-34.7-17c-13-2.1-33-2.1-60.1,0c-27,2.2-45.4,3.2-55.3,3.2c-13.5,0-28.1-0.7-46.3-2.1c-18.2-1.4-32.4-2.2-42.6-2.7c-10.4-0.3-21.5,1-33.5,3.8c-12.1,2.9-22,7.8-29.9,14.9c-18.3,16.3-27.6,37.6-27.6,63.9c0,44,14.9,73.2,44.7,87.4c29.8,14.2,74.1,21.2,133.1,21.2 M415.9,534.1c9.3,0,17.2,4.6,24,13.9c6.8,9.2,10.2,20.6,10.2,34c0,13.5-3.4,24.9-10.2,34.1c-6.8,9.2-14.8,13.8-24,13.8c-9.9,0-18.3-4.6-25.2-13.8c-6.8-9.2-10.2-20.6-10.2-34.1c0-13.5,3.4-24.8,10.2-34C397.5,538.7,406,534.1,415.9,534.1"/></g></g></g></g><g></g><g></g><g></g><g></g><g></g><g></g><g></g><g></g><g></g><g></g><g></g><g></g><g></g><g></g><g></g></g>
</svg>