<?xml version="1.0" encoding="UTF-8" standalone="no"?>
<svg
   xmlns:dc="http://purl.org/dc/elements/1.1/"
   xmlns:cc="http://creativecommons.org/ns#"
   xmlns:rdf="http://www.w3.org/1999/02/22-rdf-syntax-ns#"
   xmlns:svg="http://www.w3.org/2000/svg"
   xmlns="http://www.w3.org/2000/svg"
   xmlns:sodipodi="http://sodipodi.sourceforge.net/DTD/sodipodi-0.dtd"
   xmlns:inkscape="http://www.inkscape.org/namespaces/inkscape"
   viewBox="0 0 1076.1494 830.62386"
   id="svg2"
   version="1.1"
   inkscape:version="0.91 r13725"
   sodipodi:docname="logo.svg"
   width="1076.1494"
   height="830.62384">
  <metadata
     id="metadata16">
    <rdf:RDF>
      <cc:Work
         rdf:about="">
        <dc:format>image/svg+xml</dc:format>
        <dc:type
           rdf:resource="http://purl.org/dc/dcmitype/StillImage" />
        <dc:title></dc:title>
      </cc:Work>
    </rdf:RDF>
  </metadata>
  <defs
     id="defs14">
    <linearGradient
       id="a"
       y2="181.92075"
       x2="257.21799"
       y1="18.93784"
       x1="104.44538"
       gradientTransform="scale(1.0064944,0.99354749)"
       gradientUnits="userSpaceOnUse">
      <stop
         id="stop3387"
         offset="0%"
         stop-color="#F9A03C" />
      <stop
         id="stop3389"
         offset="100%"
         stop-color="#F7974E" />
    </linearGradient>
    <linearGradient
       id="b"
       y2="188.40466"
       x2="122.23588"
       y1="48.226681"
       x1="-21.491936"
       gradientTransform="scale(0.99750496,1.0025013)"
       gradientUnits="userSpaceOnUse">
      <stop
         id="stop3392"
         offset="0%"
         stop-color="#F9A03C" />
      <stop
         id="stop3394"
         offset="100%"
         stop-color="#F7974E" />
    </linearGradient>
    <linearGradient
       id="c"
       y2="246.033"
       x2="172.57579"
       y1="98.813454"
       x1="44.16782"
       gradientTransform="scale(1.0137695,0.98641753)"
       gradientUnits="userSpaceOnUse">
      <stop
         id="stop3397"
         offset="0%"
         stop-color="#F9A03C" />
      <stop
         id="stop3399"
         offset="100%"
         stop-color="#F7974E" />
    </linearGradient>
    <linearGradient
       id="d"
       y2="229.18948"
       x2="205.27444"
       y1="-4.5336752"
       x1="28.214787"
       gradientTransform="scale(1.0281535,0.97261746)"
       gradientUnits="userSpaceOnUse">
      <stop
         id="stop3402"
         offset="0%"
         stop-color="#F26D58" />
      <stop
         id="stop3404"
         offset="100%"
         stop-color="#F9A03C" />
    </linearGradient>
    <linearGradient
       id="e"
       y2="121.326"
       x2="300.62915"
       y1="6.4669213"
       x1="125.82784"
       gradientTransform="scale(0.95887415,1.0428897)"
       gradientUnits="userSpaceOnUse">
      <stop
         id="stop3407"
         offset="0%"
         stop-color="#B84E51" />
      <stop
         id="stop3409"
         offset="100%"
         stop-color="#F68E48" />
    </linearGradient>
    <linearGradient
       id="f"
       y2="395.51025"
       x2="66.386894"
       y1="236.93591"
       x1="60.120693"
       gradientTransform="scale(1.3814091,0.72389853)"
       gradientUnits="userSpaceOnUse">
      <stop
         id="stop3412"
         offset="0%"
         stop-color="#F9A03C" />
      <stop
         id="stop3414"
         offset="100%"
         stop-color="#F7974E" />
    </linearGradient>
  </defs>
  <sodipodi:namedview
     pagecolor="#ffffff"
     bordercolor="#666666"
     borderopacity="1"
     objecttolerance="10"
     gridtolerance="10"
     guidetolerance="10"
     inkscape:pageopacity="0"
     inkscape:pageshadow="2"
     inkscape:window-width="1680"
     inkscape:window-height="997"
     id="namedview12"
     showgrid="false"
     inkscape:zoom="0.53921195"
     inkscape:cx="630.69834"
     inkscape:cy="386.96567"
     inkscape:window-x="-8"
     inkscape:window-y="-8"
     inkscape:window-maximized="1"
     inkscape:current-layer="svg2"
     fit-margin-top="0"
     fit-margin-left="0"
     fit-margin-right="0"
     fit-margin-bottom="0" />
  <g
     id="g4"
     style="fill:#61dafb"
     transform="translate(-175.7,-78)">
    <path
       d="m 666.3,296.5 c 0,-32.5 -40.7,-63.3 -103.1,-82.4 14.4,-63.6 8,-114.2 -20.2,-130.4 -6.5,-3.8 -14.1,-5.6 -22.4,-5.6 l 0,22.3 c 4.6,0 8.3,0.9 11.4,2.6 13.6,7.8 19.5,37.5 14.9,75.7 -1.1,9.4 -2.9,19.3 -5.1,29.4 -19.6,-4.8 -41,-8.5 -63.5,-10.9 -13.5,-18.5 -27.5,-35.3 -41.6,-50 32.6,-30.3 63.2,-46.9 84,-46.9 l 0,-22.3 C 493.2,78 457.2,97.6 420.8,131.6 384.4,97.8 348.4,78.4 320.9,78.4 l 0,22.3 c 20.7,0 51.4,16.5 84,46.6 -14,14.7 -28,31.4 -41.3,49.9 -22.6,2.4 -44,6.1 -63.6,11 -2.3,-10 -4,-19.7 -5.2,-29 -4.7,-38.2 1.1,-67.9 14.6,-75.8 3,-1.8 6.9,-2.6 11.5,-2.6 l 0,-22.3 c -8.4,0 -16,1.8 -22.6,5.6 -28.1,16.2 -34.4,66.7 -19.9,130.1 -62.2,19.2 -102.7,49.9 -102.7,82.3 0,32.5 40.7,63.3 103.1,82.4 -14.4,63.6 -8,114.2 20.2,130.4 6.5,3.8 14.1,5.6 22.5,5.6 27.5,0 63.5,-19.6 99.9,-53.6 36.4,33.8 72.4,53.2 99.9,53.2 8.4,0 16,-1.8 22.6,-5.6 28.1,-16.2 34.4,-66.7 19.9,-130.1 62,-19.1 102.5,-49.9 102.5,-82.3 z M 536.1,229.8 c -3.7,12.9 -8.3,26.2 -13.5,39.5 -4.1,-8 -8.4,-16 -13.1,-24 -4.6,-8 -9.5,-15.8 -14.4,-23.4 14.2,2.1 27.9,4.7 41,7.9 z m -45.8,106.5 c -7.8,13.5 -15.8,26.3 -24.1,38.2 -14.9,1.3 -30,2 -45.2,2 -15.1,0 -30.2,-0.7 -45,-1.9 -8.3,-11.9 -16.4,-24.6 -24.2,-38 -7.6,-13.1 -14.5,-26.4 -20.8,-39.8 6.2,-13.4 13.2,-26.8 20.7,-39.9 7.8,-13.5 15.8,-26.3 24.1,-38.2 14.9,-1.3 30,-2 45.2,-2 15.1,0 30.2,0.7 45,1.9 8.3,11.9 16.4,24.6 24.2,38 7.6,13.1 14.5,26.4 20.8,39.8 -6.3,13.4 -13.2,26.8 -20.7,39.9 z m 32.3,-13 c 5.4,13.4 10,26.8 13.8,39.8 -13.1,3.2 -26.9,5.9 -41.2,8 4.9,-7.7 9.8,-15.6 14.4,-23.7 4.6,-8 8.9,-16.1 13,-24.1 z M 421.2,430 c -9.3,-9.6 -18.6,-20.3 -27.8,-32 9,0.4 18.2,0.7 27.5,0.7 9.4,0 18.7,-0.2 27.8,-0.7 -9,11.7 -18.3,22.4 -27.5,32 z m -74.4,-58.9 c -14.2,-2.1 -27.9,-4.7 -41,-7.9 3.7,-12.9 8.3,-26.2 13.5,-39.5 4.1,8 8.4,16 13.1,24 4.7,8 9.5,15.8 14.4,23.4 z M 420.7,163 c 9.3,9.6 18.6,20.3 27.8,32 -9,-0.4 -18.2,-0.7 -27.5,-0.7 -9.4,0 -18.7,0.2 -27.8,0.7 9,-11.7 18.3,-22.4 27.5,-32 z m -74,58.9 c -4.9,7.7 -9.8,15.6 -14.4,23.7 -4.6,8 -8.9,16 -13,24 -5.4,-13.4 -10,-26.8 -13.8,-39.8 13.1,-3.1 26.9,-5.8 41.2,-7.9 z m -90.5,125.2 c -35.4,-15.1 -58.3,-34.9 -58.3,-50.6 0,-15.7 22.9,-35.6 58.3,-50.6 8.6,-3.7 18,-7 27.7,-10.1 5.7,19.6 13.2,40 22.5,60.9 -9.2,20.8 -16.6,41.1 -22.2,60.6 -9.9,-3.1 -19.3,-6.5 -28,-10.2 z M 310,490 c -13.6,-7.8 -19.5,-37.5 -14.9,-75.7 1.1,-9.4 2.9,-19.3 5.1,-29.4 19.6,4.8 41,8.5 63.5,10.9 13.5,18.5 27.5,35.3 41.6,50 -32.6,30.3 -63.2,46.9 -84,46.9 -4.5,-0.1 -8.3,-1 -11.3,-2.7 z m 237.2,-76.2 c 4.7,38.2 -1.1,67.9 -14.6,75.8 -3,1.8 -6.9,2.6 -11.5,2.6 -20.7,0 -51.4,-16.5 -84,-46.6 14,-14.7 28,-31.4 41.3,-49.9 22.6,-2.4 44,-6.1 63.6,-11 2.3,10.1 4.1,19.8 5.2,29.1 z m 38.5,-66.7 c -8.6,3.7 -18,7 -27.7,10.1 -5.7,-19.6 -13.2,-40 -22.5,-60.9 9.2,-20.8 16.6,-41.1 22.2,-60.6 9.9,3.1 19.3,6.5 28.1,10.2 35.4,15.1 58.3,34.9 58.3,50.6 -0.1,15.7 -23,35.6 -58.4,50.6 z M 320.8,78.4 Z"
       id="path6"
       inkscape:connector-curvature="0" />
    <circle
       cx="420.89999"
       cy="296.5"
       r="45.700001"
       id="circle8" />
    <path
       d="M 520.5,78.1 Z"
       id="path10"
       inkscape:connector-curvature="0" />
  </g>
  <g
     id="g3450"
     transform="matrix(1.7664203,0,0,1.7664203,624.09245,6.533673)">
    <path
       id="path3416"
       d="m 255.52,175.619 c 0.115,-1.115 0.197,-2.24 0.261,-3.371 0.078,-1.339 -80.562,-77.85 -80.562,-77.85 l -1.928,0 c 0,0 81.736,86.215 82.229,81.22 z"
       inkscape:connector-curvature="0"
       style="fill:url(#a)" />
    <path
       id="path3418"
       d="m 83.472,149.077 c -0.107,0.235 -0.213,0.47 -0.323,0.704 -0.114,0.246 -0.232,0.491 -0.349,0.734 -2.57,5.36 35.987,43.053 39.088,38.474 0.141,-0.202 0.283,-0.416 0.424,-0.618 0.157,-0.24 0.312,-0.47 0.467,-0.71 2.48,-3.765 -38.206,-41.032 -39.307,-38.584 z"
       inkscape:connector-curvature="0"
       style="fill:url(#b)" />
    <path
       id="path3420"
       d="m 137.957,202.083 c -0.109,0.24 -0.885,1.552 -1.594,2.245 -0.12,0.24 37.64,37.688 37.64,37.688 l 3.4,0 c 0.002,0 -35.446,-38.35 -39.446,-39.933 z"
       inkscape:connector-curvature="0"
       style="fill:url(#c)" />
    <path
       id="path3422"
       d="m 255.835,171.568 c -1.766,39.147 -34.152,70.448 -73.72,70.448 l -5.35,0 -39.514,-38.928 c 3.25,-4.584 6.272,-9.333 8.962,-14.285 l 35.902,0 c 11.354,0 20.594,-9.235 20.594,-20.595 0,-11.355 -9.24,-20.595 -20.594,-20.595 l -21.246,0 c 1.619,-8.557 2.504,-17.381 2.504,-26.408 0,-9.165 -0.901,-18.114 -2.578,-26.808 l 13.197,0 81.61,80.414 c 0.097,-1.078 0.174,-2.155 0.233,-3.243 z M 21.467,0 0,0 l 0,53.213 21.467,0 c 37.493,0 68,30.499 68,67.992 0,10.2 -2.275,19.883 -6.318,28.576 l 39.163,38.59 c 12.859,-19.24 20.376,-42.339 20.376,-67.166 C 142.688,54.373 88.307,0 21.467,0 Z"
       inkscape:connector-curvature="0"
       style="fill:url(#d)" />
    <path
       id="path3424"
       d="M 182.115,0 95.187,0 C 116.419,12.963 134,31.344 145.979,53.213 l 36.136,0 c 11.354,0 20.594,9.235 20.594,20.595 0,11.357 -9.24,20.592 -20.594,20.592 l -8.12,0 81.61,80.413 c 0.192,-2.181 0.312,-4.376 0.312,-6.605 0,-17.939 -6.437,-34.395 -17.125,-47.203 C 249.48,108.203 255.917,91.744 255.917,73.808 255.917,33.112 222.813,0 182.115,0 Z"
       inkscape:connector-curvature="0"
       style="fill:url(#e)" />
    <path
       id="path3426"
       d="m 176.765,242.016 -80.957,0 c 16.296,-10.064 30.384,-23.35 41.443,-38.928 l 39.514,38.928 z m -54.453,-53.645 -39.16,-38.59 c -10.819,23.251 -34.395,39.422 -61.685,39.422 l -21.467,0 0,53.208 21.467,0 c 42.01,0 79.09,-21.488 100.845,-54.04 z"
       inkscape:connector-curvature="0"
       style="fill:url(#f)" />
  </g>
  <g
     id="g3600"
     transform="translate(216.98332,-16.691024)">
    <path
       inkscape:connector-curvature="0"
       id="path14"
       style="fill:#f68d11;fill-opacity:1;fill-rule:nonzero;stroke:none"
       d="m 356.48729,618.53074 -50.17118,-16.74419 0,-72.55816 50.23258,14.88372 -0.0614,74.41863" />
    <path
       inkscape:connector-curvature="0"
       id="path16"
       style="fill:#f68d11;fill-opacity:1;fill-rule:nonzero;stroke:none"
       d="m 369.57195,544.11211 50.23257,-14.88372 -0.17488,72.50793 -50.05769,16.79442 0,-74.41863" />
    <path
       inkscape:connector-curvature="0"
       id="path18"
       style="fill:#f68d11;fill-opacity:1;fill-rule:nonzero;stroke:none"
       d="m 409.57196,521.37164 -46.81676,-14.46884 -46.20653,14.46884 46.27351,12.40372 46.74978,-12.40372" />
    <path
       inkscape:connector-curvature="0"
       id="path20"
       style="fill:#f68d11;fill-opacity:1;fill-rule:nonzero;stroke:none"
       d="m 482.99896,618.53074 -50.17118,-16.74419 0,-72.55816 50.23257,14.88372 -0.0614,74.41863" />
    <path
       inkscape:connector-curvature="0"
       id="path22"
       style="fill:#f68d11;fill-opacity:1;fill-rule:nonzero;stroke:none"
       d="m 496.08361,544.11211 50.23258,-14.88372 -0.17489,72.50793 -50.05769,16.79442 0,-74.41863" />
    <path
       inkscape:connector-curvature="0"
       id="path24"
       style="fill:#f68d11;fill-opacity:1;fill-rule:nonzero;stroke:none"
       d="m 536.08363,521.37164 -46.81676,-14.46884 -46.20653,14.46884 46.2735,12.40372 46.74979,-12.40372" />
    <path
       inkscape:connector-curvature="0"
       id="path26"
       style="fill:#f68d11;fill-opacity:1;fill-rule:nonzero;stroke:none"
       d="m 166.78118,650.15866 -50.23257,-14.88373 0,72.55816 50.17155,16.7442 0.061,-74.41863" />
    <path
       inkscape:connector-curvature="0"
       id="path28"
       style="fill:#f68d11;fill-opacity:1;fill-rule:nonzero;stroke:none"
       d="m 179.80444,650.15866 50.23258,-14.88373 -0.17433,72.50942 -50.05825,16.79294 0,-74.41863" />
    <path
       inkscape:connector-curvature="0"
       id="path30"
       style="fill:#f68d11;fill-opacity:1;fill-rule:nonzero;stroke:none"
       d="m 219.80446,627.41818 -46.81695,-14.46884 -46.20634,14.46884 46.27406,12.40373 46.74923,-12.40373" />
    <path
       inkscape:connector-curvature="0"
       id="path32"
       style="fill:#f68d11;fill-opacity:1;fill-rule:nonzero;stroke:none"
       d="m 293.23183,724.57729 -50.17155,-16.7442 0,-72.55816 50.23257,14.88373 -0.061,74.41863" />
    <path
       inkscape:connector-curvature="0"
       id="path34"
       style="fill:#f68d11;fill-opacity:1;fill-rule:nonzero;stroke:none"
       d="m 306.31611,650.15866 50.23258,-14.88373 -0.17489,72.50942 -50.05769,16.79294 0,-74.41863" />
    <path
       inkscape:connector-curvature="0"
       id="path36"
       style="fill:#f68d11;fill-opacity:1;fill-rule:nonzero;stroke:none"
       d="m 346.31612,627.41818 -46.81694,-14.46884 -46.20634,14.46884 46.27406,12.40373 46.74922,-12.40373" />
    <path
       inkscape:connector-curvature="0"
       id="path38"
       style="fill:#f68d11;fill-opacity:1;fill-rule:nonzero;stroke:none"
       d="m 229.97599,830.62383 -50.17155,-16.74419 0,-72.55816 50.23258,14.88372 -0.061,74.41863" />
    <path
       inkscape:connector-curvature="0"
       id="path40"
       style="fill:#f68d11;fill-opacity:1;fill-rule:nonzero;stroke:none"
       d="m 243.06028,756.2052 50.23257,-14.88372 -0.17432,72.50947 -50.05825,16.79288 0,-74.41863" />
    <path
       inkscape:connector-curvature="0"
       id="path42"
       style="fill:#f68d11;fill-opacity:1;fill-rule:nonzero;stroke:none"
       d="m 283.06029,733.46473 -46.81694,-14.46884 -46.20634,14.46884 46.27406,12.40391 46.74922,-12.40391" />
  </g>
</svg>
